<svg xmlns="http://www.w3.org/2000/svg" width="25" height="24" viewBox="0 0 25 24" fill="none">
  <path d="M12.9302 2.5C8.24318 2.5 4.43018 6.313 4.43018 11C4.43018 15.983 9.05918 19.041 12.1222 21.064L12.6522 21.416C12.7362 21.472 12.8332 21.5 12.9292 21.5C13.0252 21.5 13.1222 21.472 13.2062 21.416L13.7362 21.064C16.7992 19.041 21.4282 15.983 21.4282 11C21.4302 6.313 17.6172 2.5 12.9302 2.5ZM12.9302 13.5C11.5492 13.5 10.4302 12.381 10.4302 11C10.4302 9.619 11.5492 8.5 12.9302 8.5C14.3112 8.5 15.4302 9.619 15.4302 11C15.4302 12.381 14.3112 13.5 12.9302 13.5Z" fill="white"/>
</svg>