<svg xmlns="http://www.w3.org/2000/svg" width="140" height="140" viewBox="0 0 140 140" fill="none">
  <path d="M82.2699 95.7332L72.0461 124.707H56.0937C56.0937 120.378 52.5828 116.867 48.2516 116.867C43.923 116.867 40.4121 120.378 40.4121 124.707H28.5312L33.3957 110.671L36.532 101.626H42.3645C43.4965 101.626 44.4152 100.707 44.4152 99.575C44.4152 98.4429 43.4965 97.5242 42.3645 97.5242H37.9539L39.682 92.5449H46.9063C48.0383 92.5449 48.957 91.6261 48.957 90.4941C48.957 89.3593 48.0383 88.4433 46.9063 88.4433H41.1039L43.1027 82.6765L73.2684 86.7589C78.3898 87.366 84.1348 90.1523 82.2699 95.7332Z" fill="#FCB556"/>
  <path d="M108.481 124.707C108.481 129.038 104.97 132.549 100.639 132.549C99.3785 132.549 98.1863 132.251 97.1309 131.72C99.7012 130.435 101.465 127.777 101.465 124.707C101.465 121.639 99.7012 118.981 97.1309 117.696C98.1863 117.165 99.3785 116.867 100.639 116.867C104.971 116.867 108.481 120.378 108.481 124.707Z" fill="#505A5D"/>
  <path d="M56.094 124.707C56.094 129.038 52.5831 132.549 48.2519 132.549C46.9886 132.549 45.7991 132.251 44.7437 131.72C47.314 130.435 49.0776 127.777 49.0776 124.707C49.0776 121.639 47.314 118.981 44.7437 117.696C45.7991 117.165 46.9886 116.867 48.2519 116.867C52.5828 116.867 56.094 120.378 56.094 124.707Z" fill="#505A5D"/>
  <path d="M101.465 124.707C101.465 127.777 99.7014 130.435 97.1311 131.72C94.5635 130.433 92.7998 127.775 92.7998 124.707C92.7998 121.639 94.5635 118.984 97.1311 117.696C99.7014 118.981 101.465 121.639 101.465 124.707Z" fill="#5B6A70"/>
  <path d="M49.0773 124.707C49.0773 127.777 47.3137 130.435 44.7434 131.72C42.1758 130.433 40.4121 127.775 40.4121 124.707C40.4121 121.639 42.1758 118.984 44.7434 117.696C47.3137 118.981 49.0773 121.639 49.0773 124.707Z" fill="#5B6A70"/>
  <path d="M97.8311 82.6765L94.7959 91.4347L83.2568 124.707H72.0459L82.2697 95.7332C84.1346 90.1523 78.3896 87.366 73.2682 86.7589L43.1025 82.6765H97.8311Z" fill="#F99E07"/>
  <path d="M119.802 109.566C119.794 109.591 119.785 109.613 119.78 109.635L119.094 111.614H102.999C98.4873 111.614 94.7959 107.923 94.7959 103.411V91.4348H106.701C106.701 91.4348 113.671 92.3946 112.244 101.265C112.244 101.265 113.729 101.153 115.44 101.451C118.421 101.979 122.09 103.756 119.802 109.566Z" fill="#F27928"/>
  <path d="M119.094 111.614L114.552 124.707H108.482C108.482 120.378 104.971 116.867 100.64 116.867C96.3112 116.867 92.8003 120.378 92.8003 124.707H83.2573L94.7964 91.4348V103.411C94.7964 107.923 98.4878 111.614 103 111.614H119.094Z" fill="#E45B3B"/>
  <path d="M48.9567 90.4941C48.9567 91.6262 48.038 92.5449 46.906 92.5449H25.0474C23.9126 92.5449 22.9966 91.6262 22.9966 90.4941C22.9966 89.3594 23.9126 88.4434 25.0474 88.4434H46.906C48.038 88.4434 48.9567 89.3594 48.9567 90.4941Z" fill="#E00911"/>
  <path d="M122.03 90.4941C120.242 94.4043 118.027 98.0766 115.44 101.451C113.729 101.153 112.244 101.265 112.244 101.265C113.671 92.3945 106.701 91.4348 106.701 91.4348H99.2119C99.335 91.123 99.4553 90.8086 99.5729 90.4941H122.03Z" fill="#678FCA"/>
  <path d="M36.532 101.626L33.3957 110.671C30.1746 107.983 27.2516 104.951 24.6895 101.626H36.532Z" fill="#678FCA"/>
  <path d="M127.195 66.7104C127.195 75.1979 125.347 83.2507 122.03 90.494H99.5728C102.329 83.1577 103.847 75.1269 103.847 66.7104H127.195Z" fill="#547DBF"/>
  <path d="M25.0476 92.5448H39.6819L37.9538 97.5241H21.7991C16.1034 88.6292 12.8003 78.0554 12.8003 66.7104H36.1464C36.1464 74.3503 37.3987 81.673 39.6929 88.4433H25.0476C23.9128 88.4433 22.9968 89.3593 22.9968 90.494C22.9968 91.6261 23.9125 92.5448 25.0476 92.5448Z" fill="#4771B7"/>
  <path d="M40.4284 42.9133C37.6667 50.2524 36.1464 58.2887 36.1464 66.7106H12.8003C12.8003 58.2204 14.6515 50.1594 17.971 42.9133H40.4284Z" fill="#547DBF"/>
  <path d="M46.1949 14.6753V31.262C43.9145 34.8905 41.9758 38.7925 40.4281 42.9132H17.9707C23.6804 30.4472 33.7344 20.3874 46.1949 14.6753Z" fill="#678FCA"/>
  <path d="M69.9976 9.50195C60.3534 14.2543 52.1202 21.8285 46.1948 31.2621V14.6754C53.4409 11.3531 61.5019 9.50195 69.9976 9.50195Z" fill="#7BA0D4"/>
  <path d="M122.022 42.9133H99.5671C93.989 28.0711 83.3522 16.0781 69.9976 9.50195C93.0948 9.50195 112.996 23.1984 122.022 42.9133Z" fill="#DCEBF6"/>
  <path d="M127.196 66.7051L103.811 64.5805C103.581 56.9325 102.091 49.6317 99.5674 42.9133H122.022C125.344 50.1594 127.193 58.2149 127.196 66.7051Z" fill="#E0F1FF"/>
  <path d="M127.195 66.7052V66.7106H103.847C103.847 65.997 103.836 65.2888 103.811 64.5806L127.195 66.7052Z" fill="#678FCA"/>
  <path d="M103.846 66.7104C103.846 75.1269 102.329 83.1577 99.5726 90.494C99.455 90.8085 99.3347 91.123 99.2116 91.4347H94.7956L97.8308 82.6765H69.9976V66.7104H103.846Z" fill="#4771B7"/>
  <path d="M99.5671 42.9133H69.9976V9.50195C83.3522 16.0781 93.989 28.0711 99.5671 42.9133Z" fill="#E0F1FF"/>
  <path d="M103.846 66.7106H69.9976V61.5071L103.811 64.5805C103.835 65.2887 103.846 65.9969 103.846 66.7106Z" fill="#678FCA"/>
  <path d="M69.9976 66.7104V82.6765H43.1022L41.1034 88.4433H39.6925C37.3983 81.673 36.146 74.3503 36.146 66.7104H69.9976Z" fill="#547DBF"/>
  <path d="M69.9976 9.50195V42.9133H46.1948V31.2621C52.1202 21.8285 60.3534 14.2543 69.9976 9.50195Z" fill="#99BCE3"/>
  <path d="M69.9976 61.5071V66.7106H36.146C36.146 58.2887 37.6663 50.2524 40.428 42.9133H46.1948V51.8848C46.1948 56.3965 49.8862 60.0879 54.3979 60.0879L69.9976 61.5071Z" fill="#678FCA"/>
  <path d="M46.195 31.2622V42.9134H40.4282C41.9759 38.7927 43.9148 34.8907 46.195 31.2622Z" fill="#7BA0D4"/>
  <path d="M69.9976 42.9133V61.5071L54.3979 60.0879C49.8862 60.0879 46.1948 56.3965 46.1948 51.8848V42.9133H69.9976Z" fill="#7BA0D4"/>
  <path d="M103.811 64.5805L69.9976 61.5071V42.9133H99.5671C102.091 49.6317 103.581 56.9325 103.811 64.5805Z" fill="#99BCE3"/>
  <path d="M100.76 64.6597H72.0486V61.7394L67.9471 61.321V64.6597H38.2326C38.4432 57.8155 39.7092 51.171 41.8912 44.964H46.1951V40.8624H43.4936C44.3084 38.9729 45.2107 37.13 46.1951 35.3444V27.5487C45.3721 28.73 44.5846 29.9413 43.8326 31.1882C41.9705 34.2753 40.3654 37.5128 39.0256 40.8624H21.2932C26.8221 30.4827 35.5693 22.069 46.1951 16.964V12.4468C25.4768 21.5741 10.9381 42.2378 10.7549 66.2565V67.1671C10.8889 84.6288 18.6436 101.038 32.083 112.246C32.4658 112.566 32.9307 112.722 33.3955 112.722C33.9834 112.722 34.5658 112.473 34.9705 111.986C35.6979 111.117 35.58 109.823 34.7107 109.096C22.6166 99.0116 15.4689 84.4046 14.8947 68.7612H34.1283C34.1994 71.255 34.4018 73.7487 34.7326 76.1987C34.8693 77.2269 35.7498 77.9761 36.7615 77.9761C36.8518 77.9761 36.9447 77.9679 37.0377 77.9569C38.1615 77.8038 38.9463 76.7729 38.7959 75.6491C38.4896 73.3823 38.301 71.0718 38.2326 68.7612H67.9471V74.4733C67.9471 75.6081 68.8658 76.5241 69.9979 76.5241C71.1299 76.5241 72.0486 75.6081 72.0486 74.4733V68.7612H101.763C101.708 70.5987 101.577 72.4362 101.375 74.2436C101.246 75.3702 102.056 76.3847 103.182 76.5132C103.259 76.5214 103.338 76.5269 103.415 76.5269C104.443 76.5269 105.331 75.753 105.449 74.7058C105.671 72.7452 105.81 70.7519 105.867 68.7612H125.104C124.849 75.5479 123.348 82.2362 120.693 88.4433H115.15C114.018 88.4433 113.1 89.3593 113.1 90.494C113.1 91.6261 114.018 92.5448 115.15 92.5448H118.724C118.596 92.7882 118.47 93.0343 118.336 93.2776C117.792 94.2675 118.153 95.5171 119.145 96.0612C120.135 96.6081 121.385 96.2472 121.929 95.2546C126.58 86.8081 129.096 77.2487 129.232 67.5581L100.76 64.6597ZM34.1286 64.6597H14.8923C15.1493 57.6897 16.7024 51.0452 19.322 44.964H37.5356C35.4764 51.2585 34.3225 57.8921 34.1286 64.6597Z" fill="#4068B1"/>
  <path d="M129.241 66.2566C128.995 33.7887 102.515 7.45117 69.998 7.45117C61.5352 7.45117 53.4824 9.23398 46.1953 12.4469V16.9641C50.9285 14.6863 56.0336 13.0676 61.3957 12.2254C55.5605 16.316 50.4172 21.4922 46.1953 27.5488V35.3445C51.3605 25.9766 58.8227 18.1453 67.9473 12.9172V40.8625H46.1953V44.9641H67.9473V61.3211L72.0488 61.7395V44.9641H98.1047C100.287 51.1711 101.553 57.8156 101.763 64.6598H100.76L129.233 67.5582C129.236 67.4297 129.239 67.2984 129.239 67.1699C129.239 66.8828 129.252 66.5137 129.241 66.2566ZM72.0488 40.8625V12.9172C82.9125 19.1434 91.4191 29.0555 96.5023 40.8625H72.0488ZM100.97 40.8625C99.6305 37.5129 98.0254 34.2754 96.1633 31.1883C91.5559 23.5512 85.573 17.1145 78.6004 12.2254C95.9937 14.9625 110.71 25.859 118.703 40.8625H100.97ZM105.868 64.6598C105.673 57.8922 104.52 51.2586 102.461 44.9641H120.674C123.294 51.0453 124.847 57.6898 125.104 64.6598H105.868Z" fill="#678FCA"/>
  <path d="M112.245 103.315H100.957C99.8237 103.315 98.9058 102.397 98.9058 101.264C98.9058 100.132 99.8237 99.2136 100.957 99.2136H112.245C113.378 99.2136 114.296 100.132 114.296 101.264C114.296 102.397 113.378 103.315 112.245 103.315Z" fill="#E0F1FF"/>
  <path d="M44.4152 99.575C44.4152 100.707 43.4965 101.626 42.3645 101.626H20.5059C19.3738 101.626 18.4551 100.707 18.4551 99.575C18.4551 98.4429 19.3738 97.5242 20.5059 97.5242H42.3645C43.4965 97.5242 44.4152 98.4429 44.4152 99.575Z" fill="#E00911"/>
</svg>