<svg xmlns="http://www.w3.org/2000/svg" width="140" height="140" viewBox="0 0 110 110" fill="none">
  <path d="M3.4375 3.4375H82.5V106.562H3.4375V3.4375Z" fill="#8E630F"/>
  <path d="M3.4375 3.4375H68.75V106.562H3.4375V3.4375Z" fill="#C9993B"/>
  <path d="M82.5 3.4375L73.8598 26.4688C73.3697 27.7805 72.4907 28.9113 71.3405 29.7099C70.1902 30.5085 68.8234 30.9368 67.4231 30.9375H18.5144C17.1141 30.9368 15.7473 30.5085 14.597 29.7099C13.4468 28.9113 12.5678 27.7805 12.0777 26.4688L3.4375 3.4375H82.5Z" fill="#C88E1C"/>
  <path d="M18.5144 30.9375H67.4231C67.8691 30.9331 68.3135 30.8847 68.75 30.7931V3.4375H3.4375L12.0777 26.4688C12.5678 27.7805 13.4468 28.9113 14.597 29.7099C15.7473 30.5085 17.1141 30.9368 18.5144 30.9375Z" fill="#DDA12B"/>
  <path d="M10.3125 89.375H51.5625V99.6875H10.3125V89.375Z" fill="#F7FAFD"/>
  <path d="M8.59375 73.9062H25.7812V77.3438H8.59375V73.9062Z" fill="#F7FAFD"/>
  <path d="M8.59375 80.7812H34.375V84.2188H8.59375V80.7812Z" fill="#F7FAFD"/>
  <path d="M92.8125 41.25H58.4375V106.562H106.562V55L92.8125 41.25Z" fill="#C8CDED"/>
  <path d="M58.4375 99.6875H99.6875V48.125L92.8125 41.25H58.4375V99.6875Z" fill="#E2E7F6"/>
  <path d="M92.8125 41.25V55H106.562L92.8125 41.25Z" fill="#78A0D4"/>
  <path d="M63.5938 46.4062H73.9062V49.8438H63.5938V46.4062Z" fill="#78A0D4"/>
  <path d="M77.3438 46.4062H87.6562V49.8438H77.3438V46.4062Z" fill="#78A0D4"/>
  <path d="M63.5938 53.2812H87.6562V56.7188H63.5938V53.2812Z" fill="#78A0D4"/>
  <path d="M63.5938 60.1562H91.0938V63.5938H63.5938V60.1562Z" fill="#78A0D4"/>
  <path d="M94.5312 60.1562H101.406V63.5938H94.5312V60.1562Z" fill="#78A0D4"/>
  <path d="M63.5938 67.0312H91.0938V70.4688H63.5938V67.0312Z" fill="#78A0D4"/>
  <path d="M94.5312 67.0312H101.406V70.4688H94.5312V67.0312Z" fill="#78A0D4"/>
  <path d="M63.5938 73.9062H91.0938V77.3438H63.5938V73.9062Z" fill="#78A0D4"/>
  <path d="M94.5312 73.9062H101.406V77.3438H94.5312V73.9062Z" fill="#78A0D4"/>
  <path d="M65.3125 82.5H99.6875V99.6875H65.3125V82.5Z" fill="#5E87CA"/>
  <path d="M65.3125 82.5H96.25V96.25H65.3125V82.5Z" fill="#78A0D4"/>
  <path d="M42.9688 24.0625C45.8165 24.0625 48.125 21.754 48.125 18.9062C48.125 16.0585 45.8165 13.75 42.9688 13.75C40.121 13.75 37.8125 16.0585 37.8125 18.9062C37.8125 21.754 40.121 24.0625 42.9688 24.0625Z" fill="#5B6A70"/>
  <path d="M42.9688 51.5625C45.8165 51.5625 48.125 49.254 48.125 46.4062C48.125 43.5585 45.8165 41.25 42.9688 41.25C40.121 41.25 37.8125 43.5585 37.8125 46.4062C37.8125 49.254 40.121 51.5625 42.9688 51.5625Z" fill="#5B6A70"/>
  <path d="M42.9688 41.2501C43.5556 41.2556 44.1371 41.3626 44.6875 41.5663V23.7463C43.5805 24.1681 42.357 24.1681 41.25 23.7463V41.5663C41.8004 41.3626 42.3819 41.2556 42.9688 41.2501Z" fill="#D9D9D9"/>
</svg>