<svg xmlns="http://www.w3.org/2000/svg" width="140" height="140" viewBox="0 0 140 140" fill="none">
  <g clip-path="url(#clip0_49_113)">
    <path d="M48.9999 102.667H13.9999C13.2911 102.662 12.5927 102.497 11.9569 102.184C11.3211 101.871 10.7645 101.417 10.329 100.858C9.89337 100.299 9.59009 99.6488 9.44187 98.9558C9.29366 98.2627 9.30437 97.5451 9.4732 96.8567C9.77075 95.8244 10.401 94.9193 11.2661 94.2821C12.1311 93.645 13.1824 93.3114 14.2565 93.3334H25.6665C26.9031 93.3297 28.0879 92.8369 28.9623 91.9625C29.8367 91.0881 30.3295 89.9033 30.3332 88.6667C30.324 87.4319 29.8294 86.2502 28.9562 85.377C28.0831 84.5038 26.9014 84.0092 25.6665 84.0001H13.9999C13.3531 83.996 12.7141 83.8581 12.1231 83.5951C11.5321 83.3322 11.002 82.9498 10.5659 82.4721C10.1298 81.9944 9.79724 81.4316 9.58912 80.8192C9.381 80.2068 9.30181 79.5579 9.35653 78.9134C9.50397 77.7251 10.0863 76.6335 10.9912 75.8493C11.8961 75.0651 13.0593 74.6438 14.2565 74.6667H30.0532C31.1921 74.6988 32.3057 74.3279 33.1978 73.6193C34.09 72.9107 34.7033 71.91 34.9299 70.7934C35.0454 70.1235 35.0132 69.4364 34.8355 68.7802C34.6578 68.1241 34.3389 67.5146 33.9011 66.9946C33.4633 66.4745 32.9171 66.0564 32.3008 65.7695C31.6846 65.4825 31.013 65.3337 30.3332 65.3334H6.99987C6.38713 65.3367 5.78001 65.2164 5.21475 64.9799C4.6495 64.7434 4.13768 64.3954 3.70987 63.9567C3.21907 63.4805 2.84239 62.8993 2.60802 62.2568C2.37365 61.6144 2.28768 60.9272 2.35653 60.2467C2.50393 59.0588 3.08594 57.9676 3.99032 57.1834C4.8947 56.3993 6.0574 55.9777 7.2542 56.0001H34.7199C35.8587 56.0322 36.9723 55.6612 37.8645 54.9526C38.7566 54.2441 39.37 53.2433 39.5965 52.1267C39.7121 51.4568 39.6799 50.7698 39.5022 50.1136C39.3245 49.4574 39.0056 48.848 38.5678 48.3279C38.13 47.8079 37.5838 47.3897 36.9675 47.1028C36.3512 46.8159 35.6797 46.667 34.9999 46.6667H20.9999C20.3531 46.6626 19.7141 46.5248 19.1231 46.2618C18.5322 45.9989 18.002 45.6165 17.5659 45.1388C17.1298 44.6611 16.7972 44.0983 16.5891 43.4859C16.381 42.8734 16.3018 42.2246 16.3565 41.5801C16.504 40.3918 17.0863 39.3002 17.9912 38.516C18.8961 37.7317 20.0593 37.3105 21.2565 37.3334H62.9999L48.9999 102.667Z" fill="#D6DBE3"/>
    <path d="M137.667 39.6667L127.825 27.7177C127.261 27.0552 126.556 26.5272 125.762 26.1724C124.968 25.8175 124.104 25.6447 123.235 25.6667H73.7845C71.8275 25.7045 69.9464 26.4307 68.4715 27.7177L54.4155 39.6667L55.9999 42H135.333L137.667 39.6667Z" fill="#C17F3E"/>
    <path d="M119.835 114.333H45.9176C45.3332 114.354 44.7519 114.24 44.2187 114C43.6854 113.76 43.2147 113.401 42.8428 112.949C42.4709 112.498 42.208 111.967 42.0744 111.398C41.9408 110.829 41.94 110.236 42.0723 109.667L54.4156 39.6667H137.667L125.323 109.667C125.067 110.949 124.386 112.107 123.39 112.954C122.394 113.801 121.142 114.287 119.835 114.333Z" fill="#D69247"/>
    <path d="M109.667 39.6667L102.802 25.6667H93.4685L81.6665 39.6667H109.667Z" fill="#E8CAB1"/>
    <path d="M109.666 39.6667L104.729 67.6667C104.547 68.7051 103.198 69.2278 102.592 68.4928L99.1455 64.3091C98.9267 64.0904 98.63 63.9675 98.3206 63.9675C98.0113 63.9675 97.7146 64.0904 97.4958 64.3091L91.1958 69.6594C90.977 69.8781 90.6803 70.001 90.371 70.001C90.0616 70.001 89.7649 69.8781 89.5461 69.6594L85.1385 64.3091C84.9197 64.0904 84.623 63.9675 84.3136 63.9675C84.0043 63.9675 83.7076 64.0904 83.4888 64.3091L78.5678 68.4928C77.7045 69.2278 76.5401 68.7051 76.7221 67.6667L81.6665 39.6667H109.666Z" fill="#FCDEC3"/>
    <path d="M88.2911 105H55.6244C55.3324 105.01 55.042 104.953 54.7757 104.833C54.5094 104.712 54.2743 104.533 54.0886 104.307C53.903 104.081 53.7717 103.816 53.705 103.532C53.6384 103.247 53.638 102.951 53.7041 102.667L56.9941 84C57.1225 83.36 57.4625 82.7819 57.9594 82.3586C58.4563 81.9354 59.0812 81.6916 59.7334 81.6667H92.4001C92.6921 81.6566 92.9825 81.7139 93.2488 81.834C93.5151 81.9542 93.7502 82.134 93.9359 82.3596C94.1215 82.5852 94.2528 82.8505 94.3195 83.1349C94.3861 83.4194 94.3865 83.7154 94.3204 84L91.0304 102.667C90.902 103.307 90.562 103.885 90.0651 104.308C89.5682 104.731 88.9433 104.975 88.2911 105Z" fill="#FCDEC3"/>
    <path d="M64.2741 98.0001C64.1371 98.0003 64.0005 97.9878 63.8658 97.9628C63.2571 97.8547 62.7161 97.5094 62.3618 97.0028C62.0074 96.4962 61.8686 95.8696 61.9758 95.2608L62.7971 90.5941C62.9165 89.9959 63.2653 89.4683 63.7689 89.1241C64.2725 88.78 64.8908 88.6467 65.4915 88.7529C66.0921 88.8591 66.6273 89.1962 66.9824 89.6921C67.3375 90.188 67.4844 90.8033 67.3915 91.4061L66.5678 96.0728C66.4725 96.6121 66.1905 97.1008 65.7711 97.4532C65.3518 97.8055 64.8218 97.9991 64.2741 98.0001Z" fill="#604F43"/>
    <path d="M73.6076 98.0001C73.4706 98.0003 73.3339 97.9878 73.1993 97.9628C72.5906 97.8547 72.0496 97.5094 71.6953 97.0028C71.3409 96.4962 71.2021 95.8696 71.3093 95.2608L72.1306 90.5941C72.25 89.9959 72.5988 89.4683 73.1024 89.1241C73.606 88.78 74.2243 88.6467 74.825 88.7529C75.4256 88.8591 75.9608 89.1962 76.3159 89.6921C76.671 90.188 76.8179 90.8033 76.7249 91.4061L75.9013 96.0728C75.806 96.6121 75.524 97.1008 75.1046 97.4532C74.6853 97.8055 74.1553 97.9991 73.6076 98.0001Z" fill="#604F43"/>
    <path d="M82.9406 98.0001C82.8037 98.0003 82.667 97.9878 82.5323 97.9628C81.9236 97.8547 81.3826 97.5094 81.0283 97.0028C80.6739 96.4962 80.5351 95.8696 80.6423 95.2608L81.4636 90.5941C81.583 89.9959 81.9318 89.4683 82.4354 89.1241C82.939 88.78 83.5573 88.6467 84.158 88.7529C84.7586 88.8591 85.2938 89.1962 85.6489 89.6921C86.0041 90.188 86.1509 90.8033 86.058 91.4061L85.2343 96.0728C85.139 96.6121 84.857 97.1008 84.4376 97.4532C84.0183 97.8055 83.4884 97.9991 82.9406 98.0001Z" fill="#604F43"/>
    <path d="M137.667 116.667H2.33333C1.71449 116.667 1.121 116.421 0.683417 115.983C0.245833 115.546 0 114.952 0 114.333C0 113.714 0.245833 113.121 0.683417 112.683C1.121 112.246 1.71449 112 2.33333 112H137.667C138.286 112 138.879 112.246 139.317 112.683C139.754 113.121 140 113.714 140 114.333C140 114.952 139.754 115.546 139.317 115.983C138.879 116.421 138.286 116.667 137.667 116.667Z" fill="#D9D9D9"/>
  </g>
  <defs>
    <clipPath id="clip0_49_113">
      <rect width="140" height="140" fill="white"/>
    </clipPath>
  </defs>
</svg>