<svg xmlns="http://www.w3.org/2000/svg" width="25" height="24" viewBox="0 0 25 24" fill="none">
  <path d="M18.9302 5H6.93018C4.93018 5 3.93018 6 3.93018 8V17C3.93018 19 4.93018 20 6.93018 20H18.9302C20.9302 20 21.9302 19 21.9302 17V8C21.9302 6 20.9302 5 18.9302 5ZM18.8711 9.606L13.9592 13.178C13.6512 13.402 13.2902 13.514 12.9302 13.514C12.5702 13.514 12.2081 13.402 11.9011 13.179L6.98926 9.606C6.65426 9.363 6.58022 8.893 6.82422 8.558C7.06722 8.224 7.53407 8.14801 7.87207 8.39301L12.7842 11.965C12.8722 12.028 12.9891 12.029 13.0771 11.965L17.9893 8.39301C18.3263 8.14801 18.7941 8.224 19.0371 8.558C19.2811 8.894 19.2061 9.363 18.8711 9.606Z" fill="white"/>
</svg>