<svg xmlns="http://www.w3.org/2000/svg" width="25" height="24" viewBox="0 0 25 24" fill="none">
	<path d="M18.5548 14.1742L21.1979 15.7502C21.7439 16.0762 22.0258 16.7102 21.9008 17.3342C21.3898 19.8932 18.8199 21.5332 16.3029 20.8422C10.3639 19.2122 5.72477 14.5872 4.08877 8.63524C3.39677 6.11724 5.03488 3.54522 7.59488 3.03322L7.61172 3.03023C8.23672 2.90523 8.87388 3.18823 9.19888 3.73723L10.7619 6.37624C11.3179 7.31524 11.0417 8.52422 10.1327 9.12822L8.47183 10.2332C9.64383 13.0402 11.8838 15.2892 14.6828 16.4592L15.7978 14.7942C16.4068 13.8872 17.6168 13.6152 18.5548 14.1742Z" fill="white" />
</svg>
