<svg xmlns="http://www.w3.org/2000/svg" width="36" height="32" viewBox="0 0 36 32" fill="none">
  <path d="M12.8842 29.44C11.4045 31.1467 9.52782 32 7.25414 32C5.01654 32 3.24812 31.0187 1.94887 29.056C0.649623 27.0933 -7.34818e-07 23.5947 -1.17496e-06 18.56C-1.61884e-06 13.4827 2.81504 7.296 8.44511 2.40892e-06L13.3173 4.16C11.5128 8.34134 10.3759 11.8827 9.90677 14.784C11.4586 15.3813 12.7218 16.448 13.6962 17.984C14.6346 19.52 15.1038 21.3973 15.1038 23.616C15.1038 25.792 14.3639 27.7333 12.8842 29.44ZM33.8346 29.376C32.391 31.0827 30.5504 31.936 28.3128 31.936C26.0752 31.9787 24.3068 31.0187 23.0075 29.056C21.7083 27.0933 21.0586 23.5733 21.0586 18.496C21.0586 13.376 23.8376 7.21067 29.3955 5.77385e-07L34.3759 4.16C32.4632 8.17067 31.3263 11.712 30.9654 14.784C32.4812 15.3813 33.7083 16.448 34.6466 17.984C35.5489 19.4773 36 21.248 36 23.296C36 23.3813 36 23.9787 36 25.088C36 26.24 35.2782 27.6693 33.8346 29.376Z" fill="white"/>
</svg>